Coordinates
version=1
nRows=6
nColumns=36
inDegrees=yes

Units are S.I. units (second, meters, Newtons, ...)
If the header above contains a line with 'inDegrees', this indicates whether rotational values are in degrees (yes) or radians (no).

endheader
time	pelvis_tilt	pelvis_list	pelvis_rotation	pelvis_tx	pelvis_ty	pelvis_tz	hip_flexion_r	hip_adduction_r	hip_rotation_r	knee_angle_r	knee_angle_r_beta	ankle_angle_r	subtalar_angle_r	mtp_angle_r	hip_flexion_l	hip_adduction_l	hip_rotation_l	knee_angle_l	knee_angle_l_beta	ankle_angle_l	subtalar_angle_l	mtp_angle_l	lumbar_extension	lumbar_bending	lumbar_rotation	arm_flex_r	arm_add_r	arm_rot_r	elbow_flex_r	pro_sup_r	arm_flex_l	arm_add_l	arm_rot_l	elbow_flex_l	pro_sup_l
      5.59322030	     -5.00030558	      0.00070642	      1.74042930	      0.19470751	      0.93448949	     -0.12873018	      7.36894947	     -2.50030038	     -0.70342391	      4.72877653	      0.08253272	     -0.55916900	     -8.07690524	     -7.49999987	      3.93377576	     -0.23022368	     -3.64926184	      2.53573377	      0.04425690	      1.63750967	     -4.92834350	     -7.49999987	      0.16500132	     -2.05227345	      2.59521486	      1.17884600	    -17.07855431	      7.20112831	    101.11951921	     80.50313413	     26.45553591	    -16.82733069	     37.48233637	     75.60105348	     75.54193828
      5.61016950	     -4.86911204	     -0.02717601	      1.35337380	      0.19203303	      0.93508328	     -0.13339554	      7.55941613	     -2.66224408	     -0.43323206	      4.98280799	      0.08696641	     -0.75512984	     -8.66763056	     -7.49999987	      3.80292884	     -0.03348835	     -3.93134738	      2.32485645	      0.04057640	      1.74016215	     -5.30405920	     -7.49999987	     -0.34548471	     -2.02499477	      2.01734630	      2.15809096	    -15.67326783	     10.63832452	    101.65418745	     80.53857011	     27.63625564	    -14.42149497	     39.45413643	     73.17612115	     74.40921942
      5.62711860	     -4.68419299	     -0.03996345	      0.93327849	      0.18868744	      0.93640467	     -0.13802502	      7.75918885	     -2.90083200	     -0.43606392	      5.23608175	      0.09138687	     -0.64381032	     -8.35324582	     -7.49999987	      3.60441215	      0.19803258	     -4.38578305	      2.05691517	      0.03589994	      1.95716216	     -5.08460209	     -7.49999987	     -1.09344925	     -1.93485533	      0.98274412	      3.48230291	    -14.23352887	     14.53023080	    102.31507320	     79.34581230	     28.54878059	    -12.28202034	     40.53714178	     71.08932128	     72.96551574
      5.64406780	     -4.73167902	     -0.00896433	      0.44359619	      0.18431655	      0.93744889	     -0.14168227	      8.29527376	     -3.17724530	      0.03336485	      5.41779081	      0.09455829	     -1.06799587	     -8.99068495	     -7.49999987	      3.70169454	      0.50550340	     -4.34464870	      1.78783379	      0.03120359	      1.67252896	     -5.87559044	     -7.49999987	     -1.50731587	     -1.97312068	      0.10238339	      4.55001005	    -12.50612245	     18.16556388	    102.94547055	     80.36685546	     29.98474982	    -10.25750032	     42.53268660	     67.96922218	     72.03248143
      5.66101690	     -4.69776514	      0.01019889	     -0.10531873	      0.17912760	      0.93798474	     -0.14434573	      8.77861207	     -3.43648305	      0.21502751	      5.52919833	      0.09650272	     -1.19965132	     -8.79614655	     -7.49999987	      3.74471363	      0.77970053	     -4.60921642	      1.57787212	      0.02753906	      1.58476004	     -6.03596384	     -7.49999987	     -2.19398530	     -1.97376867	     -1.10716274	      5.52528223	    -10.46654792	     21.98684245	    103.89328030	     80.55617007	     30.95715364	     -8.66822911	     43.57799613	     65.54981393	     70.67239407
      5.67796610	     -4.74814550	      0.05874193	     -0.76025585	      0.17345915	      0.93727141	     -0.14636354	      9.43851901	     -3.68352409	      0.60601968	      5.66877537	      0.09893879	     -1.44688816	     -8.71906150	     -7.49999987	      3.91793834	      1.07672561	     -4.94932085	      1.38671749	      0.02420279	      1.54804058	     -6.14063616	     -7.49999987	     -2.86874100	     -2.03213533	     -2.30022968	      6.31043004	     -8.23082175	     25.78936163	    105.31858711	     80.71662283	     31.82374070	     -7.40160528	     44.57161925	     63.63813566	     68.95027356
